# AST/ASF file generated using VICON BodyLanguage
# -----------------------------------------------
:version 1.10
:name VICON
:units
  mass 1.0
  length 0.45
  angle deg
:documentation
   .ast/.asf automatically generated from VICON data using
   VICON BodyBuilder and BodyLanguage model FoxedUp or BRILLIANT.MOD
:root
   order TX TY TZ RX RY RZ
   axis XYZ
   position 0 0 0  
   orientation 0 0 0 
:bonedata
  begin
     id 1 
     name lhipjoint
     direction 0.602128 -0.715006 0.355257 
     length 2.21237 
     axis 0 0 0  XYZ
  end
  begin
     id 2 
     name lfemur
     direction 0.34202 -0.939693 0  
     length 6.71649  
     axis 0 0 20  XYZ
    dof rx ry rz
    limits (-160.0 20.0)
           (-70.0 70.0)
           (-60.0 70.0)
  end
  begin
     id 3 
     name ltibia
     direction 0.34202 -0.939693 0   
     length 6.97123   
     axis 0 0 20   XYZ
    dof rx
    limits (-10.0 170.0)
  end
  begin
     id 4 
     name lfoot
     direction 0.0655697 -0.180151 0.981451   
     length 1.80924   
     axis -90 7.62852e-016 20   XYZ
    dof rx rz
    limits (-45.0 90.0)
           (-70.0 20.0)
  end
  begin
     id 5 
     name ltoes
     direction 1.53545e-011 -4.21827e-011 1   
     length 0.916331   
     axis -90 7.62852e-016 20   XYZ
    dof rx
    limits (-90.0 20.0)
  end
  begin
     id 6 
     name rhipjoint
     direction -0.625414 -0.698792 0.347201   
     length 2.2637  
     axis 0 0 0  XYZ 
  end
  begin
     id 7 
     name rfemur
     direction -0.34202 -0.939693 0   
     length 7.07595   
     axis 0 0 -20   XYZ
    dof rx ry rz
    limits (-160.0 20.0)
           (-70.0 70.0)
           (-70.0 60.0)
  end
  begin
     id 8 
     name rtibia
     direction -0.34202 -0.939693 0   
     length 7.22924   
     axis 0 0 -20   XYZ
    dof rx
    limits (-10.0 170.0)
 end
 begin
     id 9 
     name rfoot
     direction -0.0766747 -0.210662 0.974547   
     length 1.98482  
     axis -90 -7.62852e-016 -20   XYZ
    dof rx rz
    limits (-45.0 90.0)
           (-20.0 70.0)
  end
  begin
     id 10 
     name rtoes
     direction -1.53532e-011 -4.21867e-011 1   
     length 0.999842   
     axis -90 -7.62852e-016 -20   XYZ
    dof rx
    limits (-90.0 20.0)
  end
  begin
     id 11 
     name lowerback
     direction -0.0224668 0.997354 -0.0691422   
     length 2.09945   
     axis 0 0 0   XYZ
    dof rx ry rz
    limits (-20.0 45.0)
           (-30.0 30.0)
           (-30.0 30.0)
  end
  begin
     id 12 
     name upperback
     direction 0.0134698 0.998451 -0.0539888   
     length 2.09758   
     axis 0 0 0   XYZ
    dof rx ry rz
    limits (-20.0 45.0)
           (-30.0 30.0)
           (-30.0 30.0)
  end
  begin
     id 13 
     name thorax
     direction 0.0241905 0.99948 -0.0213333   
     length 2.10428   
     axis 0 0 0   XYZ
    dof rx ry rz
    limits (-20.0 45.0)
           (-30.0 30.0)
           (-30.0 30.0)
  end
  begin
     id 14 
     name lowerneck
     direction -0.00866847 0.995978 0.0891737   
     length 1.3959   
     axis 0 0 0   XYZ
    dof rx ry rz
    limits (-20.0 45.0)
           (-30.0 30.0)
           (-30.0 30.0)
  end
  begin
     id 15 
     name upperneck
     direction 0.0680679 0.992203 0.104404   
     length 1.39452   
     axis 0 0 0   XYZ
    dof rx ry rz
    limits (-20.0 45.0)
           (-30.0 30.0)
           (-30.0 30.0)
  end
  begin
     id 16
     name head
     direction 0.0242216 0.999358 0.0264054  
     length 1.40433  
     axis 0 0 0   XYZ
    dof rx ry rz
    limits (-20.0 45.0)
           (-30.0 30.0)
           (-30.0 30.0)
  end
  begin
     id 17 
     name lclavicle
     direction 0.929368 0.362991 -0.0671771  
     length 3.04887  
     axis 0 0 0   XYZ
    dof ry rz
    limits (-20.0 10.0)
           (0.0 20.0)
  end
  begin
     id 18 
     name lhumerus
     direction 1 -4.48967e-011 -7.13741e-028   
     length 4.77195   
     axis -180 -30 -90   XYZ
    dof rx ry rz
    limits (-60.0 90.0)
           (-90.0 90.0)
           (-90.0 90.0)
  end
  begin
     id 19
     name lradius
     direction 1 -4.48977e-011 3.60404e-027   
     length 2.98444   
     axis -180 -30 -90   XYZ
    dof rx
    limits (-10.0 170.0)
  end
  begin
     id 20
     name lwrist
     direction 1 -4.48997e-011 7.54877e-027   
     length 1.49222   
     axis -7.18178e-015 90 90   XYZ
    dof ry
    limits (-180.0 0.0)
 end
  begin
     id 21 
     name lhand
     direction 1 -4.489e-011 1.51105e-026   
     length 0.992285   
     axis -9.63605e-015 90 90   XYZ
    dof rx rz
    limits (-90.0 90.0)
           (-45.0 45.0)
  end
  begin
     id 22 
     name lfingers
     direction 1 -4.48998e-011 3.01948e-026   
     length 0.800006   
     axis -1.92718e-014 90 90   XYZ
    dof rx
    limits (0.0 90.0)
  end
  begin
     id 23
     name lthumb
     direction 0.707107 -6.34881e-011 0.707107   
     length 1.14865   
     axis -90 45 -3.53137e-014   XYZ
    dof rx rz
    limits (-45.0 45.0)
           (-45.0 45.0)
  end
  begin
     id 24 
     name rclavicle
     direction -0.945672 0.324529 0.0196374   
     length 3.4236  
     axis 0 0 0   XYZ 
    dof ry rz
    limits (-10.0 20.0)
           (-20.0 0.0)
  end
  begin
     id 25 
     name rhumerus
     direction -1 -4.4896e-011 1.02757e-029  
     length 4.62052   
     axis -180 30 90   XYZ
    dof rx ry rz
    limits (-90.0 60.0)
           (-90.0 90.0)
           (-90.0 90.0)
  end
  begin
     id 26 
     name rradius
     direction -1 -4.48982e-011 3.85962e-027   
     length 2.95332   
     axis -180 30 90   XYZ
    dof rx
    limits (-10.0 170.0)
  end
  begin
     id 27 
     name rwrist
     direction -1 -4.48961e-011 7.55118e-027   
     length 1.47666   
     axis -7.18178e-015 -90 -90   XYZ
    dof ry
    limits (-180.0 0.0)
  end
  begin
     id 28
     name rhand
     direction -1 -4.48984e-011 1.50994e-026   
     length 0.990956   
     axis -9.63605e-015 -90 -90   XYZ
    dof rx rz
    limits (-90.0 90.0)
           (-45.0 45.0)
  end
  begin
     id 29
     name rfingers
     direction -1 -4.4892e-011 3.02158e-026   
     length 0.798934   
     axis -1.92718e-014 -90 -90   XYZ
    dof rx
    limits (0.0 90.0)
  end
  begin
     id 30
     name rthumb
     direction -0.707107 -6.34916e-011 0.707107   
     length 1.14711   
     axis -90 -45 3.53137e-014   XYZ
    dof rx rz
    limits (-45.0 45.0)
           (-45.0 45.0)
  end
:hierarchy
  begin
    root lhipjoint rhipjoint lowerback
    lhipjoint lfemur
    lfemur ltibia
    ltibia lfoot
    lfoot ltoes
    rhipjoint rfemur
    rfemur rtibia
    rtibia rfoot
    rfoot rtoes
    lowerback upperback
    upperback thorax
    thorax lowerneck lclavicle rclavicle
    lowerneck upperneck
    upperneck head
    lclavicle lhumerus
    lhumerus lradius
    lradius lwrist
    lwrist lhand lthumb
    lhand lfingers
    rclavicle rhumerus
    rhumerus rradius
    rradius rwrist
    rwrist rhand rthumb
    rhand rfingers
  end

#!OML:ASF H:\ManfredObstacles\Project 1\Capture day 1\Session 1\Male.ASF
:FULLY-SPECIFIED
:DEGREES
409
root 0.444542 16.5177 -1.67565 -168.974 -12.2215 -178.106
lowerback -10.4647 -3.49963 -0.160891
upperback 1.40336 -4.87193 2.41178
thorax 7.5855 -2.46064 1.80778
lowerneck -1.87161 -2.78514 -6.69512
upperneck -1.55927 -3.72825 10.227
head 0.187197 -1.90636 4.54671
rclavicle -7.97623e-014 8.54774e-015
rhumerus -44.7719 -26.8879 -68.1899
rradius 26.8539
rwrist 35.8827
rhand -0.642371 -3.60065
rfingers 7.12502
rthumb 24.975 -31.9884
lclavicle -7.97623e-014 8.54774e-015
lhumerus -21.9495 4.7092 90.9194
lradius 20.8278
lwrist -24.5162
lhand -8.11466 8.89592
lfingers 7.12502
lthumb 17.7985 38.1014
rfemur -33.2791 -8.31207 24.4017
rtibia 25.6362
rfoot -8.2393 6.86734
rtoes 19.3158
lfemur 10.8678 -6.68873 -15.896
ltibia -3.49861e-014
lfoot 4.266 -6.79045
ltoes -6.44676
410
root 0.484504 16.5403 -1.8872 -168.628 -12.0051 -178.099
lowerback -10.7814 -3.54449 -0.174295
upperback 1.2337 -4.93887 2.47633
thorax 7.59474 -2.49579 1.8575
lowerneck -1.95157 -2.66818 -6.67467
upperneck -1.45584 -3.57452 10.2076
head 0.21963 -1.8265 4.5364
rclavicle -2.74323e-014 9.14409e-015
rhumerus -44.6267 -26.8987 -67.9693
rradius 26.8633
rwrist 36.3865
rhand -0.0723504 -3.53757
rfingers 7.12502
rthumb 25.5211 -31.8483
lclavicle -2.74323e-014 9.14409e-015
lhumerus -22.3422 5.58886 90.5491
lradius 20.7022
lwrist -24.9061
lhand -7.91357 8.99041
lfingers 7.12502
lthumb 17.992 38.1782
rfemur -33.2221 -9.30411 25.12
rtibia 26.0104
rfoot -8.52727 8.33325
rtoes 21.2467
lfemur 11.1234 -6.64132 -15.6308
ltibia -3.49861e-014
lfoot 5.59406 -6.36993
ltoes -8.1556
411
root 0.529068 16.5629 -2.08609 -168.232 -11.8091 -178.086
lowerback -11.0912 -3.58224 -0.247489
upperback 1.11743 -4.9884 2.5338
thorax 7.66097 -2.52461 1.93477
lowerneck -2.04757 -2.59806 -6.57404
upperneck -1.45892 -3.48294 10.2146
head 0.22528 -1.78114 4.51889
rclavicle -1.49089e-015 -3.83654e-014
rhumerus -44.3837 -26.9965 -67.9185
rradius 27.1452
rwrist 36.5876
rhand 0.402707 -3.52073
rfingers 7.12502
rthumb 25.976 -31.7655
lclavicle -1.49089e-015 -3.83654e-014
lhumerus -22.5753 5.78654 90.2593
lradius 20.5984
lwrist -24.8557
lhand -7.63686 9.01551
lfingers 7.12502
lthumb 18.2582 38.1786
rfemur -33.218 -9.97154 25.7811
rtibia 26.4415
rfoot -8.87518 9.21903
rtoes 22.5633
lfemur 11.2145 -6.60581 -15.3202
ltibia -2.54444e-014
lfoot 6.75354 -6.0437
ltoes -10.7583
412
root 0.576971 16.5832 -2.28101 -167.849 -11.8162 -178.38
lowerback -11.3138 -3.75238 -0.630651
upperback 1.00062 -5.15732 2.49782
thorax 7.70117 -2.62001 2.06962
lowerneck -1.95485 -2.52361 -6.54319
upperneck -1.55877 -3.39401 10.4126
head 0.171436 -1.74575 4.58863
rclavicle 4.67144e-015 1.98785e-016
rhumerus -44.2152 -26.8251 -68.1122
rradius 27.7257
rwrist 36.2456
rhand 0.37799 -3.39427
rfingers 7.12502
rthumb 25.9524 -31.6425
lclavicle 4.67144e-015 1.98785e-016
lhumerus -22.8307 5.57041 89.9721
lradius 20.5101
lwrist -24.7183
lhand -7.29218 8.92423
lfingers 7.12502
lthumb 18.5898 38.056
rfemur -33.0996 -10.7704 26.0523
rtibia 26.7476
rfoot -8.94781 10.2613
rtoes 17.0481
lfemur 11.3498 -6.8347 -15.2853
ltibia 2.54444e-014
lfoot 7.90127 -5.74406
ltoes -11.5246
413
root 0.621644 16.5994 -2.47336 -167.59 -11.6806 -178.813
lowerback -11.336 -3.91624 -1.10757
upperback 0.900648 -5.29527 2.39602
thorax 7.64753 -2.70172 2.20449
lowerneck -1.79422 -2.42036 -6.43997
upperneck -1.75563 -3.25436 10.3682
head 0.0624363 -1.68461 4.55807
rclavicle -6.43814e-014 2.84262e-014
rhumerus -44.0085 -26.3739 -68.4849
rradius 28.3615
rwrist 35.5014
rhand -0.0934391 -3.35229
rfingers 7.12502
rthumb 25.5009 -31.6659
lclavicle -6.43814e-014 2.84262e-014
lhumerus -22.9799 5.32182 89.6738
lradius 20.2296
lwrist -24.8641
lhand -7.2011 8.64715
lfingers 7.12502
lthumb 18.6774 37.7705
rfemur -32.7371 -11.3127 25.9532
rtibia 26.8665
rfoot -9.59106 11.4247
rtoes 6.03252
lfemur 11.7081 -6.96912 -15.4731
ltibia 4.13472e-014
lfoot 9.16774 -5.53507
ltoes -12.4127
414
root 0.66573 16.6039 -2.65638 -167.448 -11.5416 -178.663
lowerback -11.3369 -3.96058 -0.970947
upperback 0.875066 -5.37711 2.42647
thorax 7.61535 -2.73744 2.14601
lowerneck -1.8961 -2.61527 -6.54135
upperneck -1.80433 -3.12767 10.5584
head 0.0644931 -1.45153 4.64867
rclavicle -5.80451e-014 -1.59028e-015
rhumerus -43.613 -25.9532 -68.9605
rradius 28.9306
rwrist 34.5692
rhand -0.588654 -3.47594
rfingers 7.12502
rthumb 25.0264 -31.8565
lclavicle -5.80451e-014 -1.59028e-015
lhumerus -22.8255 5.03747 89.4201
lradius 19.766
lwrist -25.2899
lhand -7.32857 8.42054
lfingers 7.12502
lthumb 18.5548 37.5556
rfemur -32.3465 -11.8656 26.5773
rtibia 26.8337
rfoot -10.3763 12.2882
rtoes 1.55319
lfemur 12.0446 -6.98174 -15.0352
ltibia -2.54444e-014
lfoot 10.5966 -5.35075
ltoes -13.8161
415
root 0.719737 16.6143 -2.81714 -167.198 -11.0806 -178.298
lowerback -11.262 -3.86546 -0.716567
upperback 0.798314 -5.29326 2.4903
thorax 7.46857 -2.68992 2.09437
lowerneck -1.9816 -2.62042 -6.55696
upperneck -1.93984 -3.11461 10.621
head 0.0363958 -1.44147 4.67479
rclavicle -4.00054e-014 0
rhumerus -43.2172 -25.3099 -69.6611
rradius 29.69
rwrist 33.2689
rhand -1.002 -3.61077
rfingers 7.12502
rthumb 24.6303 -32.0459
lclavicle -4.00054e-014 0
lhumerus -22.6179 4.76517 89.0946
lradius 19.3215
lwrist -26.0148
lhand -7.45093 8.35471
lfingers 7.12502
lthumb 18.4371 37.501
rfemur -32.0894 -11.178 27.1443
rtibia 26.7983
rfoot -10.8989 12.1966
rtoes 1.96112
lfemur 12.1538 -6.62067 -14.3568
ltibia -4.45278e-014
lfoot 12.0615 -5.10809
ltoes -14.6878
416
root 0.77656 16.6258 -2.98285 -166.996 -10.6432 -177.958
lowerback -11.2779 -3.81131 -0.534107
upperback 0.769556 -5.25027 2.51477
thorax 7.43023 -2.66342 2.02616
lowerneck -1.84549 -2.60989 -6.39482
upperneck -2.24729 -3.07778 10.6177
head -0.0943014 -1.42749 4.64557
rclavicle 3.62534e-014 -8.34896e-015
rhumerus -42.7963 -24.3701 -70.6223
rradius 30.5254
rwrist 31.5529
rhand -1.27295 -3.8718
rfingers 7.12502
rthumb 24.3706 -32.3421
lclavicle 3.62534e-014 -8.34896e-015
lhumerus -22.3998 4.99272 88.516
lradius 18.8819
lwrist -27.2567
lhand -7.59585 8.19763
lfingers 7.12502
lthumb 18.2977 37.357
rfemur -31.654 -10.3893 27.6243
rtibia 26.6088
rfoot -11.1107 11.943
rtoes 8.20178
lfemur 12.3566 -6.29143 -13.719
ltibia -9.54166e-015
lfoot 13.3975 -4.62638
ltoes -14.8942
417
root 0.793219 16.6457 -3.13149 -166.556 -10.5517 -178.411
lowerback -11.3632 -3.94861 -0.555979
upperback 0.738651 -5.40354 2.27194
thorax 7.42982 -2.72929 1.75048
lowerneck -1.69571 -2.57457 -6.25683
upperneck -2.71162 -2.99076 10.6355
head -0.282009 -1.3889 4.63192
rclavicle -3.3197e-014 -5.26779e-015
rhumerus -42.1771 -23.6671 -71.4484
rradius 31.1377
rwrist 30.2881
rhand -1.24242 -4.20483
rfingers 7.12502
rthumb 24.3998 -32.6712
lclavicle -3.3197e-014 -5.26779e-015
lhumerus -22.0491 5.94875 87.8235
lradius 18.4238
lwrist -28.8589
lhand -7.86229 8.05294
lfingers 7.12502
lthumb 18.0413 37.2362
rfemur -31.5529 -11.3117 27.5808
rtibia 26.6017
rfoot -11.0462 12.8461
rtoes 22.5459
lfemur 12.3686 -6.44818 -14.0239
ltibia -6.36111e-014
lfoot 14.6245 -4.01011
ltoes -14.9272
418
root 0.855527 16.6542 -3.27218 -166.472 -9.95794 -178.09
lowerback -11.0881 -3.88623 -0.539829
upperback 0.779276 -5.32961 2.36016
thorax 7.32126 -2.69652 1.86458
lowerneck -1.71304 -2.52742 -6.28626
upperneck -2.99629 -2.89753 10.6554
head -0.379148 -1.34174 4.64918
rclavicle -2.27236e-014 1.95803e-014
rhumerus -41.5011 -23.1759 -72.0753
rradius 31.5861
rwrist 29.6212
rhand -1.23705 -4.30962
rfingers 7.12502
rthumb 24.405 -32.7753
lclavicle -2.27236e-014 1.95803e-014
lhumerus -21.7604 6.84887 87.2069
lradius 18.1088
lwrist -30.0375
lhand -8.22056 8.07623
lfingers 7.12502
lthumb 17.6966 37.2909
rfemur -31.0409 -9.44085 27.7074
rtibia 26.5913
rfoot -11.9572 11.6166
rtoes 17.1647
lfemur 12.6143 -5.97871 -13.4385
ltibia 1.90833e-014
lfoot 15.8249 -3.8172
ltoes -15.7752
